<svg width="61" height="61" fill="none" xmlns="http://www.w3.org/2000/svg"><path d="M2 59V14.539C2 7.616 7.617 2 14.541 2H59v47.284A9.714 9.714 0 0149.282 59H2z" fill="#D3B880"/><path opacity=".33" d="M59.724 41.827l1.266-1.118-5.438-5.985L61 28.699l-1.266-1.108-5.318 5.886-6.754-7.42 12.353-9.991-1.075-1.296-12.414 10.041L35.752 12.97 48.667 1.226 47.511 0 34.617 11.723 24.002.049l-1.267 1.118L33.37 12.861 20.323 24.712l-4.251-3.571L10.845.406 9.197.81l4.653 18.46L1.136 8.577.583 9.942l13.981 12.119 1.618 6.42L0 43.183l1.156 1.227L16.645 30.33l3.91 15.483L5.548 57.952l1.076 1.296 14.383-11.634 3.035 12.04 1.649-.406-3.227-12.811L33.22 37.74l9.86 8.29-11.62 12.861L32.727 60l11.64-12.89 10.131 8.508 1.106-1.277L45.5 45.853l8.916-9.873 5.306 5.847zm-25.219-27.73L45.21 25.87l-11.971 9.685-11.61-9.755 12.876-11.703zm-17.72 9.834l2.292 1.919-1.468 1.335-.824-3.254zm5.217 20.705l-3.94-15.6 2.301-2.088 11.53 9.685-9.891 8.003zm22.203.139l-9.66-8.112 11.8-9.547 6.926 7.618-9.066 10.04z" fill="#fff"/><path d="M42.363 22c4.1 0 8.013 1.602 11.1 4.267.368.37.408.92.04 1.281l-2.82 2.985c-.367.37-.774.37-1.18 0-1.957-1.743-4.37-2.664-6.872-2.664-5.69 0-10.197 4.907-10.197 10.656 0 5.689 4.508 10.516 10.237 10.516 2.552 0 5.48-.781 6.394-1.152v-3.906h-4.617c-.496 0-.864-.37-.864-.82v-2.715c0-.51.368-.871.864-.871h8.738c.457 0 .814.41.814.871v10.836c0 .37-.179.601-.367.732 0 0-4.687 2.984-11.29 2.984C33.288 55 26 47.749 26 38.565 26 29.381 33.308 22 42.363 22z" fill="#fff"/><path d="M46.953 61H0V14.047C0 6.3 6.3 0 14.047 0H61v46.953C61 54.7 54.69 61 46.953 61zM3.909 57.081h43.034c5.585 0 10.139-4.543 10.139-10.138V3.909H14.047C8.462 3.909 3.91 8.452 3.91 14.047v43.035z" fill="#D3B880"/></svg>