<svg width="116" height="38" fill="none" xmlns="http://www.w3.org/2000/svg"><path d="M28.897 13.369h-13.45v3.991h9.539c-.471 5.597-5.128 7.984-9.523 7.984-5.624 0-10.531-4.425-10.531-10.626 0-6.041 4.678-10.694 10.543-10.694 4.525 0 7.192 2.885 7.192 2.885l2.794-2.894S21.874.02 15.332.02C7.002.021.558 7.052.558 14.647c0 7.441 6.062 14.698 14.987 14.698 7.85 0 13.596-5.377 13.596-13.329 0-1.677-.244-2.647-.244-2.647z" fill="#4285F4"/><path d="M39.916 10.478c-5.52 0-9.475 4.315-9.475 9.348 0 5.106 3.837 9.502 9.54 9.502 5.163 0 9.392-3.946 9.392-9.393 0-6.242-4.92-9.457-9.457-9.457zm.055 3.702c2.714 0 5.286 2.195 5.286 5.73 0 3.461-2.561 5.718-5.299 5.718-3.008 0-5.38-2.409-5.38-5.745 0-3.264 2.343-5.703 5.393-5.703z" fill="#EA4335"/><path d="M60.523 10.478c-5.52 0-9.475 4.315-9.475 9.348 0 5.106 3.837 9.502 9.54 9.502 5.162 0 9.392-3.946 9.392-9.393 0-6.242-4.92-9.457-9.457-9.457zm.055 3.702c2.714 0 5.286 2.195 5.286 5.73 0 3.461-2.561 5.718-5.299 5.718-3.008 0-5.38-2.409-5.38-5.745 0-3.264 2.343-5.703 5.393-5.703z" fill="#FBBC05"/><path d="M80.733 10.489c-5.066 0-9.048 4.437-9.048 9.417 0 5.672 4.617 9.434 8.96 9.434 2.687 0 4.115-1.066 5.17-2.29v1.859c0 3.251-1.975 5.199-4.955 5.199-2.879 0-4.323-2.141-4.824-3.356l-3.623 1.515c1.285 2.716 3.872 5.55 8.477 5.55 5.037 0 8.876-3.173 8.876-9.826V11.055h-3.952v1.596c-1.214-1.309-2.875-2.162-5.081-2.162zm.367 3.694c2.484 0 5.034 2.12 5.034 5.743 0 3.68-2.545 5.71-5.09 5.71-2.7 0-5.213-2.193-5.213-5.675 0-3.619 2.61-5.778 5.269-5.778z" fill="#4285F4"/><path d="M107.335 10.466c-4.778 0-8.79 3.802-8.79 9.412 0 5.936 4.472 9.457 9.249 9.457 3.988 0 6.435-2.182 7.896-4.136l-3.258-2.168c-.845 1.312-2.259 2.594-4.618 2.594-2.649 0-3.867-1.45-4.622-2.856l12.638-5.244-.656-1.536c-1.222-3.01-4.07-5.523-7.839-5.523zm.165 3.624c1.722 0 2.961.916 3.488 2.013l-8.44 3.528c-.364-2.731 2.224-5.54 4.952-5.54z" fill="#EA4335"/><path d="M92.52 28.775h4.151V.995H92.52v27.78z" fill="#34A853"/></svg>