<svg width="19" height="18" fill="none" xmlns="http://www.w3.org/2000/svg"><path d="M9.334 4a5 5 0 100 10 5 5 0 100-10zm0 8.245A3.245 3.245 0 1112.579 9a3.244 3.244 0 01-3.245 3.245z" fill="#fff"/><path d="M13.045.057c-1.656-.078-5.758-.074-7.416 0-1.456.068-2.74.42-3.777 1.455C.122 3.243.342 5.576.342 8.996c0 3.501-.194 5.78 1.51 7.484 1.738 1.738 4.104 1.51 7.485 1.51 3.468 0 4.665.003 5.89-.472 1.668-.648 2.927-2.138 3.05-4.814.078-1.657.073-5.758 0-7.416-.149-3.16-1.845-5.075-5.232-5.231zm2.62 15.278c-1.134 1.135-2.708 1.034-6.35 1.034-3.75 0-5.254.055-6.351-1.045-1.264-1.258-1.035-3.277-1.035-6.34 0-4.143-.425-7.127 3.733-7.34.956-.034 1.237-.045 3.642-.045l.034.022c3.997 0 7.133-.418 7.32 3.74.044.948.053 1.233.053 3.635 0 3.706.07 5.219-1.045 6.34z" fill="#fff"/><path d="M14.334 5a1 1 0 100-2 1 1 0 000 2z" fill="#fff"/></svg>