<svg width="185" height="61" fill="none" xmlns="http://www.w3.org/2000/svg"><path d="M80.79 30.797h2.983v6.978C82.001 39.248 79.53 40 77.138 40 71.88 40 68 36.221 68 31s3.88-9 9.186-9c2.836 0 5.21.975 6.814 2.854l-1.989 2.002c-1.33-1.372-2.855-2.002-4.677-2.002-3.613 0-6.154 2.53-6.154 6.146 0 3.545 2.54 6.156 6.134 6.156 1.212 0 2.403-.254 3.496-.904v-5.455h-.02zM89 31c0-5.18 4.033-9 9.5-9s9.5 3.8 9.5 9-4.033 9-9.5 9-9.5-3.83-9.5-9zm15.704 0c0-3.576-2.652-6.156-6.204-6.156-3.552 0-6.193 2.58-6.193 6.156 0 3.576 2.64 6.156 6.193 6.156 3.552-.01 6.204-2.58 6.204-6.156zM113 22h3.145v14.326H125V39h-12V22zM129 22h7.561c5.613 0 9.439 3.404 9.439 8.495 0 5.101-3.836 8.505-9.439 8.505H129V22zm7.411 14.326c3.855 0 6.356-2.309 6.356-5.83 0-3.523-2.501-5.832-6.356-5.832h-4.208v11.652h4.208v.01zM164 36.356V39h-13V22h12.648v2.644h-9.431v4.42h8.365v2.605h-8.365v4.687H164zM184 22v17h-2.577l-9.307-11.514V39H169V22h2.577l9.317 11.514V22H184zM82 46l-3.083 9h-1.384l-2.523-7.192L72.497 55h-1.414L68 46h1.363l2.483 7.321L74.45 46h1.21l2.544 7.36L80.749 46H82zM99 53.887V55h-7v-9h6.808v1.113h-5.425v2.771h4.83v1.093h-4.83v2.91H99zM118 52.569c0 1.538-1.21 2.431-3.559 2.431H110v-9h4.174c2.144 0 3.334.873 3.334 2.332 0 .972-.523 1.657-1.252 2.004 1.057.278 1.744 1.032 1.744 2.233zm-6.667-5.527v2.877h2.729c1.353 0 2.123-.486 2.123-1.438 0-.953-.77-1.44-2.123-1.44h-2.729zm5.323 5.418c0-1.042-.8-1.508-2.277-1.508h-3.056v2.996h3.056c1.488 0 2.277-.446 2.277-1.488zM126 49.994c0-.587.46-.994 1.011-.994.541 0 .989.407.989.994a.98.98 0 01-.989 1.006A1 1 0 01126 49.994zM142.767 52.748h-4.562L137.259 55H136l3.89-9h1.211L145 55h-1.287l-.946-2.252zm-.436-1.032l-1.855-4.406-1.855 4.405h3.71zM163.734 50.452h1.189v3.433c-.873.737-2.072 1.115-3.29 1.115-2.676 0-4.633-1.9-4.633-4.5s1.966-4.5 4.662-4.5c1.381 0 2.551.465 3.338 1.358l-.767.776c-.72-.708-1.545-1.019-2.523-1.019-2.015 0-3.463 1.416-3.463 3.385 0 1.94 1.448 3.375 3.453 3.375.729 0 1.42-.165 2.034-.563v-2.86zM185 53.887V55h-7v-9h6.809v1.113h-5.426v2.771h4.84v1.093h-4.84v2.91H185zM2 59V14.539C2 7.616 7.617 2 14.541 2H59v47.284A9.714 9.714 0 0149.282 59H2z" fill="#D3B880"/><path opacity=".33" d="M59.724 41.827l1.266-1.118-5.438-5.985L61 28.699l-1.266-1.108-5.318 5.886-6.754-7.42 12.353-9.991-1.075-1.296-12.414 10.041L35.752 12.97 48.667 1.226 47.511 0 34.617 11.723 24.002.049l-1.267 1.118L33.37 12.861 20.323 24.712l-4.251-3.571L10.845.406 9.197.81l4.653 18.46L1.136 8.577.583 9.942l13.981 12.119 1.618 6.42L0 43.183l1.156 1.227L16.645 30.33l3.91 15.483L5.548 57.952l1.076 1.296 14.383-11.634 3.035 12.04 1.649-.406-3.227-12.811L33.22 37.74l9.86 8.29-11.62 12.861L32.727 60l11.64-12.89 10.131 8.508 1.106-1.277L45.5 45.853l8.916-9.873 5.306 5.847zm-25.219-27.73L45.21 25.87l-11.971 9.685-11.61-9.755 12.876-11.703zm-17.72 9.834l2.292 1.919-1.468 1.335-.824-3.254zm5.217 20.705l-3.94-15.6 2.301-2.088 11.53 9.685-9.891 8.003zm22.203.139l-9.66-8.112 11.8-9.547 6.926 7.618-9.066 10.04z" fill="#fff"/><path d="M42.363 22c4.1 0 8.013 1.602 11.1 4.267.368.37.408.92.04 1.281l-2.82 2.985c-.367.37-.774.37-1.18 0-1.957-1.743-4.37-2.664-6.872-2.664-5.69 0-10.197 4.907-10.197 10.656 0 5.689 4.508 10.516 10.237 10.516 2.552 0 5.48-.781 6.394-1.152v-3.906h-4.617c-.496 0-.864-.37-.864-.82v-2.715c0-.51.368-.871.864-.871h8.738c.457 0 .814.41.814.871v10.836c0 .37-.179.601-.367.732 0 0-4.687 2.984-11.29 2.984C33.288 55 26 47.749 26 38.565 26 29.381 33.308 22 42.363 22z" fill="#fff"/><path d="M46.953 61H0V14.047C0 6.3 6.3 0 14.047 0H61v46.953C61 54.7 54.69 61 46.953 61zM3.909 57.081h43.034c5.585 0 10.139-4.543 10.139-10.138V3.909H14.047C8.462 3.909 3.91 8.452 3.91 14.047v43.035z" fill="#D3B880"/></svg>