<svg width="750" height="789" fill="none" xmlns="http://www.w3.org/2000/svg"><path opacity=".1" d="M1361.49 767.822l31.81-28.543-468.414-484.664 616.954-750.337-31.81-28.291-613.67 746.801L726.721 33.34 1458.9-556.408l-27.01-33.09L698.195 1.512 427.58-300.845l324.385-299.832L722.934-632 399.055-332.673 132.479-630.737l-31.808 28.543 267.081 298.57L40.086-1.013-66.696-92.2l-131.268-529.444-41.401 10.357 116.88 471.346-319.336-273.058-13.884 34.859 351.143 309.431 40.643 163.935-717.242 618.534 29.031 31.322 699.823-602.62 98.199 395.314L-791 1207.71l27.011 33.09 821.24-657.051 176.237 747.411 41.401-10.36L93.855 553.69l270.111-222.033 247.643 211.676-771.82 848.377 31.807 28.29 772.325-849.134L1379.38 1202.1l27.77-32.59-734.704-630.724L896.36 286.695l465.13 481.127zM396.278-272.049l268.848 300.59L364.47 275.833 72.903 26.773 396.278-272.05zm-445.05 251.08L8.782 28.037l-36.856 34.1-20.7-83.104zM82.242 507.718l-98.956-398.345 57.809-53.298 289.548 247.292-248.4 204.351zm557.639 3.537l-242.594-207.13L693.651 60.368l173.931 194.5-227.7 256.386z" fill="#D4B982"/></svg>