<svg width="289" height="233" fill="none" xmlns="http://www.w3.org/2000/svg"><path d="M0 138.812s40.428-51.108 89.684-10.686c49.257 40.422 64.592 13.939 76.673-32.524 12.082-46.462 62.538-18.943 85.577-9.471C274.974 95.602 290 26.3 290 4" stroke="#D4B982" stroke-width="2.319" stroke-linecap="round" stroke-linejoin="round"/><path fill-rule="evenodd" clip-rule="evenodd" d="M0 138.484s14.49-13.167 20.57-17.629c10.399-7.631 20.623-8.949 28.096-9.015 15.957-.142 29.423 7.852 49.084 21.997 6.236 4.487 14.77 7.978 21.412 13.476 0 0 18.448-.038 26.066-6.97 9.778-8.896 15.462-26.396 22.808-49.723 1.473-4.675 5.072-8.733 6.517-13.94 0 0 10.261-8.287 15.361-8.83 7.735-.823 33.77 2.418 38.366 6.424 11.896 10.37 27.092 11.461 34.618 11.02 7.526-.443 27.594-40.572 27.093-81.143-.502-40.57 0 229.596 0 229.596L0 237v-98.516z" fill="url(#paint0_linear)"/><path opacity=".541" d="M23.868 204.24h1.167v5.502c-.002.74-.217 1.32-.644 1.739-.424.417-.996.625-1.716.625-.442 0-.835-.078-1.178-.235a1.885 1.885 0 01-.819-.701c-.202-.313-.303-.683-.303-1.11h1.163c.003.318.111.573.326.765.215.192.495.288.841.288.374 0 .66-.117.86-.352.2-.235.3-.575.303-1.019v-5.502zm6.11 5.347v-3.407h1.137V212h-1.114v-1.008h-.06a1.775 1.775 0 01-.663.788c-.298.197-.657.296-1.076.296-.576 0-1.039-.19-1.387-.569-.349-.381-.523-.923-.523-1.625v-3.702h1.133v3.566c0 .394.108.709.326.947.22.235.506.352.86.352.164 0 .326-.03.485-.091.159-.06.305-.149.44-.265.133-.116.24-.269.321-.458.081-.192.122-.407.122-.644zm3.436-1.042V212H32.28v-5.82h1.087v.948h.072c.14-.321.354-.571.644-.751.29-.181.648-.272 1.073-.272.608 0 1.09.189 1.447.568.356.379.534.921.534 1.625V212h-1.133v-3.565c0-.422-.11-.752-.33-.989-.219-.24-.52-.36-.905-.36-.404 0-.731.13-.981.39-.25.258-.375.614-.375 1.069z" fill="#D4B982"/><path opacity=".541" d="M62.91 204.24h.94v5.547c0 .495-.091.916-.273 1.262a1.852 1.852 0 01-.77.788c-.33.179-.72.269-1.17.269-.424 0-.802-.077-1.133-.231a1.87 1.87 0 01-.78-.667c-.19-.288-.284-.63-.284-1.027h.924c0 .22.054.412.163.576.111.162.263.288.455.379.191.091.41.137.655.137.27 0 .5-.057.69-.171.189-.114.333-.28.431-.5.102-.222.152-.494.152-.815v-5.547zm6.013 5.381v-3.441h.894V212h-.894v-.985h-.061a1.912 1.912 0 01-.636.754c-.288.204-.652.307-1.092.307-.363 0-.687-.08-.97-.239a1.672 1.672 0 01-.666-.727c-.162-.326-.243-.737-.243-1.232v-3.698h.894v3.638c0 .424.119.762.356 1.015.24.253.546.379.917.379.223 0 .449-.057.678-.171.233-.113.427-.288.584-.522.16-.235.239-.535.239-.898zm3.07-5.381V212h-.895v-7.76h.894zM97.258 212h-.985l2.849-7.76h.97l2.849 7.76h-.985l-2.319-6.532h-.06L97.257 212zm.364-3.031h3.97v.833h-3.97v-.833zm9.718.652v-3.441h.894V212h-.894v-.985h-.061a1.915 1.915 0 01-.636.754c-.288.204-.652.307-1.092.307-.363 0-.687-.08-.97-.239a1.673 1.673 0 01-.666-.727c-.162-.326-.243-.737-.243-1.232v-3.698h.894v3.638c0 .424.119.762.356 1.015.24.253.546.379.917.379.223 0 .449-.057.679-.171.232-.113.426-.288.583-.522.159-.235.239-.535.239-.898zm-8.172 17.683c-.433 0-.804-.056-1.115-.167a2.378 2.378 0 01-.776-.432 2.365 2.365 0 01-.489-.568l.712-.5c.081.106.183.227.307.363.124.139.293.259.508.36.217.104.501.156.853.156.47 0 .857-.114 1.163-.341.305-.228.458-.584.458-1.069v-1.182h-.076a4.775 4.775 0 01-.28.394 1.596 1.596 0 01-.515.413c-.223.119-.523.178-.902.178-.47 0-.892-.111-1.266-.333a2.346 2.346 0 01-.882-.97c-.215-.425-.322-.94-.322-1.546 0-.596.104-1.115.314-1.557.21-.445.502-.788.875-1.031a2.31 2.31 0 011.296-.367c.379 0 .68.063.902.189.225.124.396.265.515.424.121.157.215.286.28.387h.091v-.925h.864v5.987c0 .5-.113.907-.341 1.22a1.945 1.945 0 01-.909.693c-.379.149-.8.224-1.266.224zm-.03-3.198c.358 0 .66-.082.908-.246.248-.165.436-.401.565-.709.129-.308.193-.677.193-1.106 0-.42-.063-.79-.189-1.11a1.662 1.662 0 00-.561-.754c-.248-.182-.553-.273-.917-.273-.379 0-.695.096-.947.288a1.75 1.75 0 00-.565.773 2.986 2.986 0 00-.185 1.076c0 .404.063.761.19 1.072.128.308.318.551.568.727.252.175.565.262.94.262z" fill="#8A959E"/><path opacity=".541" d="M140.085 206.279a1.118 1.118 0 00-.497-.83c-.29-.202-.66-.303-1.11-.303-.47 0-.847.107-1.133.322-.283.215-.424.49-.424.826 0 .141.03.273.091.394.06.119.135.219.223.299.091.079.204.152.338.22a2.9 2.9 0 00.375.159c.113.038.241.075.382.11l.758.197c1.488.366 2.232 1.094 2.232 2.183 0 .671-.257 1.218-.769 1.64-.511.422-1.212.633-2.103.633-.867 0-1.557-.202-2.073-.606-.515-.407-.792-.963-.829-1.667h1.174c.033.404.209.713.527.928.321.212.718.318 1.193.318.503 0 .915-.115 1.235-.345.324-.232.485-.536.485-.913a.882.882 0 00-.276-.652 1.243 1.243 0 00-.322-.215 2.742 2.742 0 00-.398-.171 5.837 5.837 0 00-.474-.144l-.917-.25c-1.346-.364-2.019-1.047-2.019-2.05 0-.437.12-.826.36-1.167.242-.341.572-.602.989-.784a3.436 3.436 0 011.402-.277c.783 0 1.426.201 1.928.603.503.401.763.915.781 1.542h-1.129zm4.695 5.838c-.566 0-1.059-.122-1.478-.367a2.442 2.442 0 01-.962-1.046c-.22-.452-.33-.977-.33-1.576 0-.442.064-.85.193-1.224.129-.376.31-.696.542-.958a2.38 2.38 0 01.853-.618 2.683 2.683 0 011.102-.223c.27 0 .528.034.773.102.248.066.481.174.701.326.222.149.414.334.576.557.161.222.289.499.382.829.096.331.144.701.144 1.111v.401h-4.137c.015.553.171.984.466 1.292.298.306.693.459 1.186.459.326 0 .605-.071.837-.213.235-.141.403-.347.504-.617l1.072.193a1.96 1.96 0 01-.841 1.148c-.429.283-.957.424-1.583.424zm-1.637-3.535h3.023c-.002-.449-.137-.818-.405-1.106-.268-.29-.619-.436-1.053-.436-.445 0-.811.151-1.099.451a1.645 1.645 0 00-.466 1.091zm-7.381 18.6v-8.002h1.106v.944h.095c.055-.099.104-.181.147-.246.043-.069.114-.156.213-.262.101-.109.205-.196.314-.261.109-.066.25-.124.424-.175.177-.05.368-.075.572-.075.352 0 .676.068.974.204.301.137.56.331.777.584a2.7 2.7 0 01.508.947c.123.379.185.799.185 1.262 0 .924-.226 1.658-.678 2.201-.452.54-1.037.811-1.754.811-.202 0-.39-.026-.565-.076a1.867 1.867 0 01-.428-.171 1.56 1.56 0 01-.314-.257 2.597 2.597 0 01-.224-.262 3.893 3.893 0 01-.151-.254h-.069v3.088h-1.132zm1.11-5.092c0 .624.134 1.123.401 1.497.268.374.641.561 1.118.561.328 0 .61-.091.845-.273.237-.182.413-.426.527-.732.113-.308.17-.659.17-1.053 0-.391-.057-.737-.17-1.038a1.546 1.546 0 00-.52-.716 1.363 1.363 0 00-.852-.269c-.485 0-.86.182-1.125.546-.263.363-.394.856-.394 1.477zM183.328 206.453a5.02 5.02 0 01.265 1.667c0 .609-.089 1.165-.265 1.667a3.566 3.566 0 01-.728 1.262 3.244 3.244 0 01-1.11.781c-.427.184-.89.276-1.39.276-.503 0-.969-.092-1.399-.276a3.227 3.227 0 01-1.106-.785 3.61 3.61 0 01-.731-1.258 5.065 5.065 0 01-.262-1.667c0-.608.088-1.164.262-1.667.177-.502.42-.922.731-1.258.311-.338.68-.6 1.106-.784.43-.184.896-.277 1.399-.277.5 0 .963.093 1.39.277.429.184.799.446 1.11.784.311.336.553.756.728 1.258zm-1.073 2.918c.119-.372.178-.789.178-1.251 0-.462-.059-.879-.178-1.25a2.524 2.524 0 00-.488-.917 2.152 2.152 0 00-.739-.557 2.213 2.213 0 00-.928-.193c-.336 0-.647.064-.933.193a2.149 2.149 0 00-.738.557c-.207.24-.37.546-.489.917a4.182 4.182 0 00-.174 1.25c0 .462.058.879.174 1.251.119.371.282.678.489.92a2.15 2.15 0 001.671.747 2.154 2.154 0 001.667-.747c.209-.242.372-.549.488-.92zm4.801 2.746c-.553 0-1.036-.127-1.451-.382a2.486 2.486 0 01-.939-1.065c-.215-.452-.322-.97-.322-1.553 0-.589.11-1.11.329-1.565.223-.457.538-.812.948-1.065.411-.255.886-.382 1.424-.382.662 0 1.213.179 1.652.538.44.356.69.828.75 1.417h-1.102a1.244 1.244 0 00-.432-.716c-.223-.19-.505-.285-.849-.285-.475 0-.856.183-1.144.55-.288.366-.432.86-.432 1.481 0 .634.143 1.138.428 1.512.285.371.668.557 1.148.557.326 0 .602-.089.83-.265.23-.177.38-.422.451-.735h1.102a2.077 2.077 0 01-.739 1.413c-.426.364-.977.545-1.652.545zm5.963-5.937v.91h-1.194v3.201c0 .157.018.289.053.398a.507.507 0 00.16.239c.07.053.144.089.219.11.076.02.164.03.266.03.101 0 .233-.016.397-.049l.205.936c-.21.078-.455.118-.735.121a2.003 2.003 0 01-.644-.087 1.714 1.714 0 01-.542-.281 1.333 1.333 0 01-.375-.492 1.683 1.683 0 01-.136-.69v-3.436h-.853v-.91h.853v-1.394h1.132v1.394h1.194z" fill="#D4B982"/><path opacity=".541" d="M222.093 204.24V212h-.91l-4.228-6.092h-.076V212h-.939v-7.76h.909l4.243 6.108h.076v-6.108h.925zm3.766 7.881c-.525 0-.986-.125-1.382-.375-.395-.25-.703-.6-.925-1.049-.22-.45-.33-.975-.33-1.577 0-.606.11-1.135.33-1.587.222-.452.53-.803.925-1.053.396-.25.857-.375 1.382-.375.526 0 .986.125 1.38.375.396.25.704.601.924 1.053.222.452.333.981.333 1.587 0 .602-.111 1.127-.333 1.577a2.52 2.52 0 01-.924 1.049c-.394.25-.854.375-1.38.375zm0-.803c.4 0 .728-.102.986-.307a1.81 1.81 0 00.572-.807c.123-.333.185-.695.185-1.084a3.14 3.14 0 00-.185-1.087 1.845 1.845 0 00-.572-.815c-.258-.207-.586-.31-.986-.31-.399 0-.727.103-.985.31a1.845 1.845 0 00-.572.815 3.118 3.118 0 00-.185 1.087c0 .389.061.751.185 1.084.124.334.315.603.572.807.258.205.586.307.985.307zm-5.282 7.862l-2.152 5.82h-.909l-2.152-5.82h.97l1.606 4.638h.061l1.606-4.638h.97zM257.334 212h-2.394v-7.76h2.5c.753 0 1.397.156 1.933.467a3.05 3.05 0 011.231 1.329c.285.576.428 1.266.428 2.069 0 .808-.144 1.504-.432 2.088a3.074 3.074 0 01-1.258 1.341c-.55.311-1.22.466-2.008.466zm-1.455-.834h1.395c.641 0 1.173-.123 1.595-.371.421-.247.736-.6.943-1.057.207-.457.311-1.001.311-1.633 0-.626-.103-1.166-.307-1.618a2.263 2.263 0 00-.917-1.045c-.407-.245-.913-.368-1.519-.368h-1.501v6.092zm8.692.955c-.561 0-1.045-.124-1.452-.371a2.487 2.487 0 01-.935-1.046c-.218-.449-.326-.972-.326-1.568 0-.596.108-1.122.326-1.577.219-.457.525-.813.916-1.068.395-.258.854-.386 1.38-.386.303 0 .602.05.898.151.295.101.564.265.807.493.242.224.435.523.579.894.144.371.216.828.216 1.371v.379h-4.486v-.773h3.577c0-.328-.066-.621-.197-.879a1.489 1.489 0 00-.553-.61 1.55 1.55 0 00-.841-.223c-.357 0-.665.088-.925.265a1.751 1.751 0 00-.595.682c-.139.28-.208.581-.208.902v.515c0 .44.076.812.227 1.118.154.303.368.534.641.693.272.157.589.235.951.235.234 0 .447-.033.636-.098.192-.069.357-.17.496-.304a1.36 1.36 0 00.322-.507l.864.242a1.91 1.91 0 01-.458.773c-.215.22-.48.392-.796.515-.316.122-.67.182-1.064.182zm-7.388 13c-.546 0-1.016-.129-1.41-.386a2.52 2.52 0 01-.909-1.065c-.212-.452-.318-.969-.318-1.55 0-.591.108-1.112.325-1.564.22-.455.526-.81.917-1.065.394-.258.854-.386 1.379-.386.41 0 .778.075 1.107.227.328.151.597.364.807.636.209.273.34.591.39.955h-.894c-.068-.265-.22-.5-.455-.705-.232-.207-.545-.31-.939-.31-.349 0-.655.091-.917.273-.26.179-.464.433-.61.761-.144.326-.216.709-.216 1.148 0 .45.07.841.212 1.175.144.333.346.592.606.776.263.185.571.277.925.277.232 0 .443-.04.632-.121.19-.081.35-.197.482-.349a1.34 1.34 0 00.28-.545h.894a2.06 2.06 0 01-1.159 1.58c-.324.159-.7.238-1.129.238z" fill="#8A959E"/><g filter="url(#filter0_d)"><circle cx="140.5" cy="143.5" r="5.5" fill="#D4B982"/><circle cx="140.5" cy="143.5" r="7.124" stroke="#fff" stroke-width="3.247"/></g><g filter="url(#filter1_d)"><circle cx="192.5" cy="67.5" r="5.5" fill="#D4B982"/><circle cx="192.5" cy="67.5" r="7.124" stroke="#fff" stroke-width="3.247"/></g><g filter="url(#filter2_d)"><circle cx="279.5" cy="52.5" r="5.5" fill="#D4B982"/><circle cx="279.5" cy="52.5" r="7.124" stroke="#fff" stroke-width="3.247"/></g><g filter="url(#filter3_d)"><circle cx="24.5" cy="115.5" r="5.5" fill="#D4B982"/><circle cx="24.5" cy="115.5" r="7.124" stroke="#fff" stroke-width="3.247"/></g><defs><filter id="filter0_d" x="113.197" y="125.475" width="54.605" height="54.605" filterUnits="userSpaceOnUse" color-interpolation-filters="sRGB"><feFlood flood-opacity="0" result="BackgroundImageFix"/><feColorMatrix in="SourceAlpha" values="0 0 0 0 0 0 0 0 0 0 0 0 0 0 0 0 0 0 127 0"/><feOffset dy="9.278"/><feGaussianBlur stdDeviation="9.278"/><feColorMatrix values="0 0 0 0 0.831373 0 0 0 0 0.72549 0 0 0 0 0.509804 0 0 0 1 0"/><feBlend in2="BackgroundImageFix" result="effect1_dropShadow"/><feBlend in="SourceGraphic" in2="effect1_dropShadow" result="shape"/></filter><filter id="filter1_d" x="165.197" y="49.475" width="54.605" height="54.605" filterUnits="userSpaceOnUse" color-interpolation-filters="sRGB"><feFlood flood-opacity="0" result="BackgroundImageFix"/><feColorMatrix in="SourceAlpha" values="0 0 0 0 0 0 0 0 0 0 0 0 0 0 0 0 0 0 127 0"/><feOffset dy="9.278"/><feGaussianBlur stdDeviation="9.278"/><feColorMatrix values="0 0 0 0 0.831373 0 0 0 0 0.72549 0 0 0 0 0.509804 0 0 0 1 0"/><feBlend in2="BackgroundImageFix" result="effect1_dropShadow"/><feBlend in="SourceGraphic" in2="effect1_dropShadow" result="shape"/></filter><filter id="filter2_d" x="252.197" y="34.475" width="54.605" height="54.605" filterUnits="userSpaceOnUse" color-interpolation-filters="sRGB"><feFlood flood-opacity="0" result="BackgroundImageFix"/><feColorMatrix in="SourceAlpha" values="0 0 0 0 0 0 0 0 0 0 0 0 0 0 0 0 0 0 127 0"/><feOffset dy="9.278"/><feGaussianBlur stdDeviation="9.278"/><feColorMatrix values="0 0 0 0 0.831373 0 0 0 0 0.72549 0 0 0 0 0.509804 0 0 0 1 0"/><feBlend in2="BackgroundImageFix" result="effect1_dropShadow"/><feBlend in="SourceGraphic" in2="effect1_dropShadow" result="shape"/></filter><filter id="filter3_d" x="-2.803" y="97.475" width="54.605" height="54.605" filterUnits="userSpaceOnUse" color-interpolation-filters="sRGB"><feFlood flood-opacity="0" result="BackgroundImageFix"/><feColorMatrix in="SourceAlpha" values="0 0 0 0 0 0 0 0 0 0 0 0 0 0 0 0 0 0 127 0"/><feOffset dy="9.278"/><feGaussianBlur stdDeviation="9.278"/><feColorMatrix values="0 0 0 0 0.831373 0 0 0 0 0.72549 0 0 0 0 0.509804 0 0 0 1 0"/><feBlend in2="BackgroundImageFix" result="effect1_dropShadow"/><feBlend in="SourceGraphic" in2="effect1_dropShadow" result="shape"/></filter><linearGradient id="paint0_linear" x1="-7.728" y1="27.165" x2="-7.728" y2="205.401" gradientUnits="userSpaceOnUse"><stop stop-color="#D4B982"/><stop offset="1" stop-color="#D4B982" stop-opacity="0"/></linearGradient></defs></svg>