<svg width="17" height="13" fill="none" xmlns="http://www.w3.org/2000/svg"><path d="M16.334 1.538c-.59.26-1.221.438-1.885.517A3.296 3.296 0 0015.892.24a6.617 6.617 0 01-2.086.797 3.282 3.282 0 00-5.593 2.992A9.319 9.319 0 011.448.6a3.257 3.257 0 00-.444 1.65 3.28 3.28 0 001.46 2.732 3.283 3.283 0 01-1.487-.412v.041A3.286 3.286 0 003.61 7.83a3.324 3.324 0 01-.865.115 3.15 3.15 0 01-.618-.061 3.284 3.284 0 003.066 2.28 6.586 6.586 0 01-4.077 1.402c-.265 0-.526-.016-.783-.045a9.277 9.277 0 005.032 1.477c6.037 0 9.338-5.001 9.338-9.339l-.011-.425a6.553 6.553 0 001.642-1.695z" fill="#fff"/></svg>