<svg width="151" height="92" fill="none" xmlns="http://www.w3.org/2000/svg"><path d="M49 3.236l4.886 15.039a2 2 0 001.902 1.382h15.813L58.808 28.95a2 2 0 00-.726 2.236l4.886 15.038-12.792-9.294a2 2 0 00-2.352 0l-12.792 9.294 4.886-15.038a2 2 0 00-.726-2.236l-12.793-9.294h15.813a2 2 0 001.902-1.382L49 3.236zM27 41.236l4.886 15.039a2 2 0 001.902 1.382h15.813L36.808 66.95a2 2 0 00-.726 2.236l4.886 15.038-12.792-9.294a2 2 0 00-2.352 0l-12.792 9.294 4.886-15.038a2 2 0 00-.726-2.236L4.399 57.657h15.813a2 2 0 001.902-1.382L27 41.236zM99 3.236l4.886 15.039a2 2 0 001.902 1.382h15.813l-12.793 9.294a2 2 0 00-.726 2.236l4.886 15.038-12.792-9.294a2 2 0 00-2.352 0l-12.792 9.294 4.886-15.038a2 2 0 00-.726-2.236l-12.793-9.294h15.813a2 2 0 001.902-1.382L99 3.236zM124 41.236l4.886 15.039a2 2 0 001.902 1.382h15.813l-12.793 9.294a2 2 0 00-.726 2.236l4.886 15.038-12.792-9.294a2.001 2.001 0 00-2.352 0l-12.792 9.294 4.886-15.038a2 2 0 00-.726-2.236l-12.793-9.294h15.813a2 2 0 001.902-1.382L124 41.236zM75 41.236l4.886 15.039a2 2 0 001.902 1.382h15.813L84.808 66.95a2 2 0 00-.726 2.236l4.886 15.038-12.792-9.294a2 2 0 00-2.352 0l-12.792 9.294 4.886-15.038a2 2 0 00-.726-2.236l-12.793-9.294h15.813a2 2 0 001.902-1.382L75 41.236z" stroke="#D4B982" stroke-width="2"/></svg>