<svg width="83" height="67" fill="none" xmlns="http://www.w3.org/2000/svg"><path d="M18.973 51.949c0 2.048-.71 3.755-2.128 5.12-1.392 1.34-3.23 2.115-5.515 2.325v3.545H9.48v-3.506c-2.18-.105-4.045-.643-5.594-1.615-1.523-.971-2.587-2.298-3.191-3.979l1.812-1.024c.945 2.863 3.27 4.4 6.973 4.61v-11.7c-1.235-.42-2.22-.802-2.955-1.143-.709-.342-1.457-.801-2.245-1.379s-1.366-1.274-1.734-2.088c-.367-.84-.551-1.825-.551-2.954 0-1.996.709-3.65 2.127-4.964 1.418-1.313 3.204-2.035 5.358-2.167v-3.545h1.851v3.545c1.602.184 3.007.696 4.215 1.537 1.235.84 2.154 1.983 2.758 3.427l-1.773.985c-.919-2.285-2.652-3.585-5.2-3.9v11.188c.946.341 1.733.643 2.364.906.63.262 1.313.617 2.048 1.063.736.447 1.313.92 1.734 1.419.42.472.774 1.076 1.063 1.812.29.735.434 1.562.434 2.482zM4.082 38.16c0 1.418.446 2.52 1.34 3.309.892.761 2.245 1.47 4.057 2.127V33.039c-1.602.132-2.902.67-3.9 1.616-.998.945-1.497 2.114-1.497 3.506zm7.248 19.184c1.733-.183 3.086-.761 4.058-1.733.972-.998 1.457-2.22 1.457-3.663 0-1.445-.46-2.574-1.378-3.388-.92-.815-2.298-1.55-4.137-2.206v10.99zM82.973 51.949c0 2.048-.71 3.755-2.128 5.12-1.392 1.34-3.23 2.115-5.515 2.325v3.545H73.48v-3.506c-2.18-.105-4.045-.643-5.594-1.615-1.523-.971-2.587-2.298-3.191-3.979l1.812-1.024c.945 2.863 3.27 4.4 6.973 4.61v-11.7c-1.235-.42-2.22-.802-2.955-1.143-.709-.342-1.457-.801-2.245-1.379s-1.366-1.274-1.734-2.088c-.367-.84-.551-1.825-.551-2.954 0-1.996.709-3.65 2.127-4.964 1.418-1.313 3.204-2.035 5.358-2.167v-3.545h1.851v3.545c1.602.184 3.007.696 4.215 1.537 1.235.84 2.154 1.983 2.758 3.427l-1.773.985c-.919-2.285-2.652-3.585-5.2-3.9v11.188c.946.341 1.734.643 2.364.906.63.262 1.313.617 2.048 1.063.736.447 1.313.92 1.734 1.419.42.472.774 1.076 1.063 1.812.29.735.434 1.562.434 2.482zM68.082 38.16c0 1.418.446 2.52 1.34 3.309.892.761 2.245 1.47 4.057 2.127V33.039c-1.602.132-2.902.67-3.9 1.616-.998.945-1.497 2.114-1.497 3.506zm7.248 19.184c1.734-.183 3.086-.761 4.058-1.733.971-.998 1.457-2.22 1.457-3.663 0-1.445-.46-2.574-1.378-3.388-.92-.815-2.298-1.55-4.137-2.206v10.99zM57.582 46.273c0 3.733-1.31 6.836-3.928 9.309-2.57 2.424-6.036 3.806-10.4 4.145v6.546h-2.4V59.8c-4.12-.097-7.636-1.018-10.545-2.764-2.91-1.745-4.873-4.17-5.891-7.272l2.255-1.382c.872 2.812 2.545 4.97 5.018 6.473 2.472 1.503 5.527 2.303 9.163 2.4V34.127a113.579 113.579 0 01-4.436-1.6c-1.115-.436-2.376-1.042-3.782-1.818-1.406-.824-2.497-1.672-3.273-2.545-.727-.873-1.381-1.964-1.963-3.273-.534-1.357-.8-2.86-.8-4.509 0-3.636 1.357-6.69 4.072-9.164 2.716-2.472 6.11-3.781 10.182-3.927V.818h2.4v6.546c6.449.533 10.788 3.54 13.019 9.018l-2.182 1.236c-1.843-4.654-5.455-7.224-10.837-7.709v22.4c2.328.825 4.194 1.552 5.6 2.182 1.406.63 2.86 1.503 4.364 2.618 1.503 1.067 2.594 2.352 3.273 3.855.727 1.503 1.09 3.273 1.09 5.309zM29.29 20.382c0 3.006.97 5.285 2.909 6.836 1.94 1.503 4.824 2.934 8.654 4.291V9.837c-3.49.145-6.303 1.236-8.436 3.272-2.085 1.988-3.127 4.412-3.127 7.273zm13.963 36.8c3.734-.34 6.619-1.503 8.655-3.49 2.036-1.989 3.054-4.462 3.054-7.42 0-2.957-.97-5.236-2.909-6.835-1.94-1.6-4.872-3.103-8.8-4.51v22.255z" fill="#D4B982"/></svg>